<svg width="110" height="166" viewBox="0 0 110 166" fill="none" xmlns="http://www.w3.org/2000/svg">
<g clip-path="url(#clip0_3_234)">
<path d="M2.42282 166C1.7901 162.196 0.524659 158.391 0.313753 154.587C-1.16259 118.657 2.42283 83.3607 14.2336 49.3328C18.0299 38.5538 23.0916 27.9861 28.997 18.2639C35.1133 7.69619 43.7604 -0.96932 57.2584 0.0874478C70.7564 1.14422 77.0836 11.7119 82.3563 22.7023C88.6835 36.0175 91.4253 50.3896 93.3234 64.7616C93.7452 67.9319 94.167 71.3136 96.2761 74.9066C99.6506 67.932 103.025 61.1686 106.61 53.7713C111.25 57.1529 109.985 60.9573 109.352 63.7049C105.556 79.1337 101.549 94.5625 97.1197 109.78C95.2215 116.543 89.9489 117.389 85.9417 112.105C76.8727 99.635 71.6001 85.4743 69.2801 70.0455C69.2801 69.6228 69.9129 68.9887 70.5456 67.9319C79.1927 68.566 76.8728 78.711 83.2 82.938C81.7236 60.9573 79.1927 40.456 68.8583 21.6455C67.5928 19.3206 65.9056 17.2071 64.0075 15.3049C58.7348 10.0211 53.2512 9.17566 47.9786 14.4595C42.0732 20.3774 36.5897 27.1407 32.5824 34.3267C23.0917 51.4464 17.6081 70.0455 14.4445 89.0673C11.07 110.414 9.17181 131.972 6.64094 153.53C6.21913 157.334 6.00822 161.35 5.58641 165.366C4.74278 165.577 3.68825 165.789 2.42282 166Z" fill="white"/>
</g>
<defs>
<clipPath id="clip0_3_234">
<rect width="110" height="166" fill="white"/>
</clipPath>
</defs>
</svg>
