<svg width="149" height="92" viewBox="0 0 149 92" fill="none" xmlns="http://www.w3.org/2000/svg">
<g clip-path="url(#clip0_38_52)">
<path fill-rule="evenodd" clip-rule="evenodd" d="M130.061 0.221358C135.941 2.86136 141.781 5.42137 147.581 8.23137C148.831 8.83137 149.351 10.3212 148.751 11.5612C148.151 12.8112 146.651 13.3314 145.411 12.7314C139.641 9.94137 133.851 7.40142 128.011 4.78142C126.751 4.21142 126.191 2.73137 126.751 1.48137C127.321 0.221368 128.801 -0.348642 130.061 0.221358Z" fill="white"/>
<path fill-rule="evenodd" clip-rule="evenodd" d="M86.8616 31.4514C95.4016 49.9414 103.002 68.8514 111.142 87.5114C111.692 88.7814 111.112 90.2515 109.852 90.8015C108.582 91.3515 107.112 90.7814 106.552 89.5114C98.432 70.8814 90.852 52.0015 82.322 33.5515C81.742 32.2915 82.2917 30.8114 83.5417 30.2314C84.8017 29.6514 86.2816 30.2014 86.8616 31.4514Z" fill="white"/>
<path fill-rule="evenodd" clip-rule="evenodd" d="M13.5906 36.2515C10.8606 53.2515 7.65055 70.2014 5.11055 87.2314C4.90055 88.5914 3.63055 89.5313 2.27055 89.3313C0.900549 89.1313 -0.0394516 87.8515 0.160548 86.4915C2.71055 69.4415 5.92055 52.4714 8.66055 35.4514C8.88055 34.0914 10.1605 33.1613 11.5205 33.3813C12.8905 33.6013 13.8106 34.8815 13.5906 36.2515Z" fill="white"/>
</g>
<defs>
<clipPath id="clip0_38_52">
<rect width="149" height="92" fill="white" transform="matrix(-1 0 0 1 149 0)"/>
</clipPath>
</defs>
</svg>
