<svg width="174" height="174" viewBox="0 0 174 174" fill="none" xmlns="http://www.w3.org/2000/svg">
<path fill-rule="evenodd" clip-rule="evenodd" d="M168.536 7.82439C156.583 89.6381 83.1744 129.378 6.53959 138.413C5.22363 138.571 4.27747 139.766 4.43514 141.082C4.59281 142.398 5.78742 143.344 7.10337 143.186C85.8851 133.901 161.004 92.6217 173.291 8.51565C173.485 7.20575 172.575 5.98683 171.259 5.79278C169.948 5.59871 168.73 6.50843 168.536 7.82439Z" fill="#FEC631"/>
<path fill-rule="evenodd" clip-rule="evenodd" d="M8.25981 140.631C11.668 138.139 15.9798 135.059 16.4588 134.695C29.4425 124.834 40.2006 113.487 49.6731 100.176C50.4433 99.0969 50.1884 97.593 49.109 96.8227C48.0296 96.0525 46.5257 96.3074 45.7556 97.3869C36.5741 110.298 26.1436 121.305 13.548 130.868C12.8142 131.426 3.11724 138.345 1.26155 139.892C0.497446 140.522 0.261103 141.117 0.218652 141.263C-0.0360491 142.027 0.115512 142.626 0.321698 143.063C0.558207 143.554 1.14629 144.27 2.28639 144.634C3.48106 145.01 6.13735 145.18 6.80443 145.277C16.8652 146.769 28.2237 147.557 38.5634 150.419C48.4239 153.148 57.3686 157.77 63.1055 167.029C63.8029 168.158 65.2887 168.503 66.4166 167.806C67.5445 167.108 67.8904 165.623 67.193 164.494C60.777 154.143 50.8677 148.837 39.8488 145.787C29.5697 142.942 18.3144 142.08 8.25981 140.631Z" fill="#FEC631"/>
</svg>
