<svg width="905" height="55" viewBox="0 0 905 55" fill="none" xmlns="http://www.w3.org/2000/svg">
<path fill-rule="evenodd" clip-rule="evenodd" d="M300.026 4.85842C200.228 3.71873 100.022 7.88375 3.42478 25.3728C1.70132 25.6835 0.98586 26.2948 0.844849 26.4347C0.0196785 27.2636 -0.0692586 28.1442 0.0351933 28.8695C0.0978645 29.3098 0.521078 31.1695 2.83469 31.3612C4.43281 31.4907 15.7761 30.5841 20.1526 30.351C40.7558 29.2579 61.3174 27.6988 81.8683 25.896C128.464 21.8241 174.997 18.3015 221.666 15.0949C247.869 13.2921 274.081 11.8001 300.278 10.5775C363.299 11.308 426.163 14.1571 487.853 17.0996C463.332 18.5968 440.802 20.1147 422.121 21.0988C390.618 22.7567 359.173 24.7147 327.732 27.2946C311.579 28.6156 295.447 30.0507 279.324 31.7446C277.538 31.9362 273.47 32.133 271.501 32.3662C270.665 32.4594 270.059 32.6097 269.787 32.7133C268.085 33.3661 267.871 34.7026 267.851 35.376C267.84 35.7852 267.98 38.018 270.853 38.4532C404.41 58.8743 543.75 35.117 677.787 54.9683C679.359 55.2014 680.833 54.1238 681.067 52.5593C681.302 51.0001 680.216 49.5392 678.639 49.3061C552.399 30.6101 421.452 50.6011 295.049 35.9251C306.095 34.8632 317.146 33.9048 328.207 32.9983C359.59 30.4235 390.978 28.4706 422.429 26.8129C454.077 25.1499 496.861 21.9018 541.644 19.8557C580.078 21.9796 618.49 24.3626 656.929 26.3828C673.144 27.2324 689.366 27.937 705.576 28.8021C712.242 29.1544 729.387 30.6308 731.873 30.0816C733.805 29.6517 734.269 28.2789 734.385 27.59C734.505 26.8439 734.431 25.9166 733.555 25.0309C733.283 24.751 732.469 24.1709 730.797 23.6943C685.596 10.8521 611.581 11.0541 542.261 14.1571C527.35 13.3283 512.44 12.5409 497.524 11.8312C463.38 10.1994 428.857 8.56234 394.137 7.27243C491.983 4.87392 589.876 5.56293 687.793 7.29836C728.906 8.02879 839.724 12.4321 883.37 16.3227C882.838 16.8665 882.523 17.6229 882.56 18.4466C882.634 20.0214 883.986 21.2439 885.578 21.1715C894.583 20.7571 899.789 20.2286 901.852 19.6846C903.137 19.348 903.838 18.8091 904.16 18.457C904.955 17.6073 905.101 16.6956 904.944 15.8304C904.845 15.2917 904.6 14.7011 904.035 14.1571C903.66 13.7842 902.741 13.2144 901.173 12.8258C884.018 8.59347 736.849 2.44432 687.898 1.57401C558.54 -0.715718 429.234 -1.18191 300.026 4.85842ZM695.806 22.5649C670.529 19.1614 640.896 17.9647 609.983 18.0425C625.729 18.949 641.481 19.8349 657.236 20.6638C670.089 21.3424 682.947 21.9225 695.806 22.5649ZM180.805 12.2508C147.642 14.6752 114.515 17.2965 81.3616 20.1976C77.5335 20.5291 73.7105 20.8555 69.8823 21.1766C106.545 16.7215 143.589 13.8879 180.805 12.2508Z" fill="#2C3E50"/>
</svg>
