<svg width="41" height="42" viewBox="0 0 41 42" fill="none" xmlns="http://www.w3.org/2000/svg">
<path fill-rule="evenodd" clip-rule="evenodd" d="M6.36253 13.4179C8.49117 13.5247 10.807 13.4542 12.8387 12.8054C15.2519 12.0346 16.7844 10.3899 18.1203 8.54407C19.8363 6.1723 21.2469 3.47309 23.0979 1.15222C23.7845 0.29002 24.4792 0.144243 24.7796 0.076271C25.5386 -0.0953429 26.1783 0.039575 26.7198 0.312381C27.362 0.634414 28.1677 1.26134 28.3065 2.61875C28.326 2.8129 28.3367 3.1008 28.2741 3.46325C28.2278 3.72883 27.9484 4.50355 27.8763 4.84082C27.7007 5.67225 27.5017 6.49403 27.2935 7.31697C26.6006 10.056 25.9089 12.3396 26.1153 15.2049C26.3949 19.0944 27.1952 21.7347 29.0258 23.5151C30.7958 25.2367 33.3957 26.1267 36.9075 26.8048C37.2466 26.8578 37.5779 26.9199 37.9013 26.9926C39.4321 27.334 40.4089 28.836 40.1006 30.3742C39.7928 31.9115 38.3123 32.9208 36.7683 32.6476C36.4461 32.5904 36.1294 32.5317 35.8181 32.4692C30.9944 31.7414 24.3291 33.5106 19.9844 35.6773C18.6451 36.3454 16.109 38.7136 13.9835 40.0143C12.4151 40.9735 10.9167 41.4135 9.84082 41.3428C9.11952 41.2965 8.60012 41.0429 8.20485 40.7519C7.63046 40.3294 7.24293 39.7631 7.06383 39.0433C6.96693 38.6498 6.92841 38.1605 7.04391 37.604C7.09984 37.3361 7.3557 36.7028 7.47505 36.4176C7.5921 35.3533 7.63804 34.2859 7.78848 33.2255C8.14757 30.6955 7.5943 28.7707 7.01705 26.2915C6.47754 23.9715 5.56778 22.2775 3.92329 20.5453C3.68748 20.3728 1.78568 18.9787 1.16145 18.3719C0.2502 17.484 0.0321766 16.5383 0.00631283 16.0668C-0.0383603 15.2666 0.169977 14.6698 0.435168 14.2101C0.827035 13.5319 1.40316 13.0511 2.17983 12.7918C2.6613 12.6302 3.31411 12.5495 4.08248 12.6964C4.67662 12.8087 6.1549 13.3432 6.36253 13.4179ZM20.3204 14.8293C20.328 15.0884 20.3415 15.3514 20.3606 15.619C20.7701 21.3156 22.3216 25.0435 25.0037 27.6509L25.0942 27.737C22.2858 28.4427 19.6033 29.4204 17.4097 30.5143C16.5066 30.9647 15.0913 32.091 13.5956 33.2277C13.8704 30.3132 13.326 27.9474 12.6372 24.9837C12.1099 22.7213 11.3444 20.8659 10.1786 19.1296C11.6923 19.0056 13.1938 18.7479 14.5939 18.301C16.9252 17.5563 18.7668 16.3379 20.3204 14.8293Z" fill="#F21E2C"/>
</svg>
