<svg width="188" height="188" viewBox="0 0 188 188" fill="none" xmlns="http://www.w3.org/2000/svg">
<g clip-path="url(#clip0_38_118)">
<path fill-rule="evenodd" clip-rule="evenodd" d="M64.0251 61.7342C61.9236 60.7595 58.688 58.5374 55.5435 56.9166C52.8142 55.5103 50.0787 54.5731 47.9113 54.5696C45.7719 54.5634 43.8516 55.3829 42.173 56.7272C40.4691 58.102 39.0308 60.078 37.8254 61.5919C32.7624 67.9577 28.2859 74.793 23.4228 81.3035C22.1747 82.9624 22.5116 85.3288 24.1705 86.5769C25.8411 87.8296 28.2008 87.4762 29.4489 85.8173C34.273 79.3725 38.7153 72.5916 43.7277 66.287C44.5145 65.2982 45.3819 64.0305 46.432 63.0225C46.8703 62.5858 47.2872 62.1008 47.8797 62.101C49.1001 62.1153 50.5617 62.8289 52.0989 63.6258C55.3445 65.2992 58.6923 67.5781 60.8641 68.58C62.7474 69.457 64.994 68.629 65.8592 66.7411C66.7362 64.8577 65.9201 62.6157 64.0251 61.7342Z" fill="#F21E2C"/>
<path fill-rule="evenodd" clip-rule="evenodd" d="M56.5288 76.2802C51.2148 74.2779 45.9297 71.9229 40.7426 69.5926C38.8502 68.739 36.6104 69.5833 35.757 71.4756C34.9107 73.3844 35.7478 75.6076 37.652 76.4655C42.9751 78.8621 48.4127 81.2761 53.8673 83.3328C55.8167 84.0736 57.9915 83.0831 58.7208 81.1292C59.4571 79.1914 58.4666 77.0166 56.5288 76.2802Z" fill="#F21E2C"/>
<path fill-rule="evenodd" clip-rule="evenodd" d="M68.1939 72.587C67.1015 74.4005 65.4456 77.114 65.0115 77.7139C61.283 82.8584 57.5593 87.9915 53.7697 93.0853C52.5172 94.7559 52.8703 97.1152 54.5293 98.3632C56.2043 99.6041 58.5595 99.2626 59.8121 97.5919C63.6269 92.4674 67.3715 87.3156 71.1134 82.1359C71.8071 81.1786 74.5625 76.8431 75.6506 74.8662C76.3477 73.5868 76.5065 72.5843 76.5243 72.2948C76.568 71.207 76.1862 70.453 75.8211 69.9346C75.079 68.8931 74.0152 68.266 72.4996 68.3532C72.2363 68.3725 70.6952 68.4901 68.9951 70.6207C68.5259 71.2069 68.263 71.8864 68.1939 72.587Z" fill="#F21E2C"/>
<path fill-rule="evenodd" clip-rule="evenodd" d="M77.9859 93.5185C83.7822 93.404 89.4598 90.0105 92.0858 85.8C93.7952 83.0532 94.3017 80.0031 93.3289 77.1211C92.4457 74.5297 90.2954 71.9058 86.0068 70.004C83.8214 69.0372 81.4306 68.88 79.062 68.8392C76.3273 68.8048 73.4233 69.0687 70.8472 70.052C68.9028 70.7949 67.936 72.9802 68.6789 74.9246C69.4219 76.869 71.6071 77.8356 73.5515 77.0928C75.2286 76.4486 77.1502 76.3568 78.9468 76.3784C80.2979 76.4029 81.6969 76.338 82.9585 76.9069C84.9375 77.7804 86.1165 78.6677 86.2655 79.8839C86.387 80.9277 85.7263 81.9383 84.892 82.8415C83.0986 84.7609 80.1698 86.1331 77.282 85.9721C74.5737 85.7998 72.5158 84.7476 70.1395 83.6126C67.2001 82.1924 65.6671 84.2395 65.2972 84.7428C64.7527 85.4887 64.1143 86.7907 64.9207 88.5711C65.033 88.803 65.2927 89.2806 65.7814 89.793C66.1404 90.1879 66.9463 90.8906 67.2631 91.2556C68.109 92.2026 68.956 93.217 69.661 94.2847C71.8874 97.6516 73.6792 101.376 74.3151 105.407C74.6274 107.455 76.5613 108.863 78.6131 108.539C80.672 108.231 82.0801 106.297 81.7558 104.245C81.1718 100.463 79.8038 96.8622 77.9859 93.5185Z" fill="#F21E2C"/>
<path fill-rule="evenodd" clip-rule="evenodd" d="M129.868 88.0503C127.103 86.6304 123.232 83.7182 119.327 81.8702C115.935 80.2614 112.49 79.4536 109.485 80.0826C105.938 80.8249 102.841 83.0483 100.175 86.0041C96.9287 89.6244 94.3278 94.397 92.0112 97.7034C90.8931 99.3049 89.4952 101.108 88.8122 103.012C88.113 104.924 88.005 106.943 88.8477 109.048C89.9759 111.842 92.3174 114.041 95.2663 115.68C98.7035 117.589 102.967 118.754 105.895 119.752C107.872 120.423 110.006 119.363 110.677 117.386C111.343 115.421 110.287 113.275 108.322 112.609C106.13 111.869 103.079 111.052 100.342 109.804C98.407 108.921 96.5364 107.941 95.8382 106.229C95.603 105.654 96.0477 105.165 96.3501 104.663C96.9111 103.735 97.6174 102.85 98.1937 102.022C100.033 99.3927 102.033 95.7889 104.441 92.6657C106.31 90.2369 108.368 88.0158 111.019 87.4655C113.116 87.0242 115.475 88.2739 117.804 89.5657C121.032 91.3537 124.132 93.5767 126.451 94.7568C128.295 95.6993 130.573 94.9645 131.516 93.12C132.463 91.2638 131.724 88.9975 129.868 88.0503Z" fill="#F21E2C"/>
<path fill-rule="evenodd" clip-rule="evenodd" d="M118.996 100.234C113.896 97.5736 108.461 95.6052 103.161 93.3929C101.251 92.5863 99.0399 93.4957 98.2288 95.4179C97.4338 97.333 98.3429 99.5439 100.258 100.339C105.359 102.474 110.611 104.358 115.521 106.918C117.361 107.872 119.646 107.153 120.6 105.313C121.559 103.462 120.848 101.193 118.996 100.234Z" fill="#F21E2C"/>
<path fill-rule="evenodd" clip-rule="evenodd" d="M128.574 117.83C128.731 117.528 129.006 117.028 129.215 116.731C129.92 115.711 130.7 114.773 131.119 114.073C132.769 111.411 134.716 108.016 137.048 105.052C138.978 102.606 141.122 100.405 143.757 99.6196C144.443 99.4136 145.214 99.5774 146.043 99.8037C147.379 100.146 148.786 100.757 150.177 101.444C153.637 103.119 157.034 105.134 159.403 105.835C161.395 106.431 163.493 105.29 164.089 103.297C164.673 101.301 163.532 99.2022 161.54 98.6065C158.974 97.8562 155.095 95.2779 151.345 93.6919C147.84 92.201 144.366 91.5707 141.61 92.3905C138.322 93.368 135.382 95.5709 132.81 98.3879C129.54 101.999 126.879 106.614 124.717 110.114C123.908 111.405 122.044 113.539 121.346 115.519C120.726 117.259 120.741 118.962 121.444 120.487C122.714 123.228 125.092 125.333 128.012 126.908C131.455 128.766 135.674 129.873 138.709 130.872C140.691 131.531 142.818 130.454 143.477 128.473C144.131 126.504 143.059 124.365 141.085 123.722C138.795 122.957 135.742 122.18 132.996 120.956C131.211 120.171 129.496 119.278 128.574 117.83Z" fill="#F21E2C"/>
<path fill-rule="evenodd" clip-rule="evenodd" d="M153.182 113.825C147.473 111.172 141.856 108.527 135.988 106.284C134.039 105.543 131.857 106.517 131.116 108.466C130.379 110.404 131.353 112.586 133.303 113.327C139.006 115.507 144.464 118.077 150.002 120.65C151.885 121.527 154.127 120.711 155.004 118.828C155.886 116.933 155.07 114.691 153.182 113.825Z" fill="#F21E2C"/>
</g>
<defs>
<clipPath id="clip0_38_118">
<rect width="141.962" height="141.962" fill="white" transform="translate(57.1885) rotate(23.7558)"/>
</clipPath>
</defs>
</svg>
