<svg width="1108" height="300" viewBox="0 0 1108 300" fill="none" xmlns="http://www.w3.org/2000/svg">
<rect width="300" height="300" rx="57" fill="#D94464"/>
<rect x="19" y="19" width="262" height="262" rx="42" fill="#FEC631"/>
<path d="M222 136.033C221.502 136.013 221.002 136 220.5 136C200.342 136 184 152.342 184 172.5C184 192.658 200.342 209 220.5 209C221.002 209 221.502 208.986 222 208.966V251.94C181.969 250.366 150 217.417 150 177C150 136.583 181.969 103.633 222 102.059V136.033Z" fill="#D94464"/>
<circle cx="150" cy="123" r="75" fill="#D94464"/>
<circle cx="150" cy="123" r="41" fill="#FEC631"/>
<rect x="75" y="123" width="34" height="129" fill="#D94464"/>
<rect width="10" height="69" transform="matrix(-1 0 0 1 119 136)" fill="#FEC631"/>
<circle cx="92" cy="123" r="27" fill="#FEC631"/>
<circle cx="92" cy="123" r="17" fill="#D94464"/>
<path d="M346 137C342 137 340 135 340 131V128C340 124 342 122 346 122H367.6C371.6 122 373.6 120 373.6 116V76.7H399.1V116C399.1 120 401.1 122 405.1 122H426.7C430.7 122 432.7 124 432.7 128V131C432.7 135 430.7 137 426.7 137H346ZM426.7 38C430.7 38 432.7 40 432.7 44V70.7C432.7 74.7 430.7 76.7 426.7 76.7H405.1C401.1 76.7 399.1 78.7 399.1 82.7V122H373.6V82.7C373.6 78.7 371.6 76.7 367.6 76.7H346C342 76.7 340 74.7 340 70.7V44C340 40 342 38 346 38H426.7ZM470.23 131C470.23 135 468.23 137 464.23 137H450.73C446.73 137 444.73 135 444.73 131V44C444.73 40 446.73 38 450.73 38H461.53C463.53 38 465.88 38.35 468.58 39.05C471.38 39.65 474.28 40.55 477.28 41.75C480.28 42.95 483.33 44.35 486.43 45.95C489.53 47.55 492.43 49.3 495.13 51.2C498.53 53.5 501.93 53.5 505.33 51.2C508.03 49.3 510.93 47.55 514.03 45.95C517.13 44.35 520.18 42.95 523.18 41.75C526.18 40.55 529.03 39.65 531.73 39.05C534.53 38.35 536.93 38 538.93 38H549.73C553.73 38 555.73 40 555.73 44V131C555.73 135 553.73 137 549.73 137H536.23C532.23 137 530.23 135 530.23 131V95.9C530.23 94.2 530.33 92.15 530.53 89.75C530.73 87.35 531.23 85.45 532.03 84.05H530.23L513.13 98.9C508.63 102.7 504.33 104.6 500.23 104.6C496.13 104.6 491.83 102.7 487.33 98.9L470.08 84.05H468.43C469.23 85.45 469.73 87.35 469.93 89.75C470.13 92.15 470.23 94.2 470.23 95.9V131ZM572.283 70.4C572.283 63.7 573.233 58.1 575.133 53.6C577.033 49.1 579.983 45.5 583.983 42.8C587.983 40 593.083 38 599.283 36.8C605.583 35.6 613.083 35 621.783 35C630.483 35 637.933 35.6 644.133 36.8C650.433 38 655.583 40 659.583 42.8C663.583 45.5 666.533 49.1 668.433 53.6C670.333 58.1 671.283 63.7 671.283 70.4V131C671.283 135 669.283 137 665.283 137H651.783C647.783 137 645.783 135 645.783 131V126.2C645.783 122.1 643.883 119.6 640.083 118.7C627.883 116 615.683 116 603.483 118.7C599.683 119.6 597.783 122.1 597.783 126.2V131C597.783 135 595.783 137 591.783 137H578.283C574.283 137 572.283 135 572.283 131V70.4ZM603.483 103.7C615.683 101 627.883 101 640.083 103.7C643.883 104.6 645.783 103.1 645.783 99.2V92C645.783 88.6 645.133 85.9 643.833 83.9C642.633 81.9 640.933 80.4 638.733 79.4C636.633 78.3 634.133 77.6 631.233 77.3C628.333 76.9 625.183 76.7 621.783 76.7C618.383 76.7 615.233 76.9 612.333 77.3C609.433 77.6 606.883 78.3 604.683 79.4C602.583 80.4 600.883 81.9 599.583 83.9C598.383 85.9 597.783 88.6 597.783 92V99.2C597.783 103.1 599.683 104.6 603.483 103.7ZM754.048 113C754.048 109 752.048 107 748.048 107H745.048C741.048 107 739.048 105 739.048 101V98C739.048 94 741.048 92 745.048 92H763.048C774.048 92 779.548 97.5 779.548 108.5V120.2C779.548 125.8 777.748 130 774.148 132.8C770.548 135.6 765.748 137 759.748 137H712.648C704.148 137 697.598 134.6 692.998 129.8C688.498 124.9 686.248 118 686.248 109.1V63.2C686.248 54.9 688.248 48.45 692.248 43.85C696.248 39.15 702.148 36.5 709.948 35.9C713.448 35.6 716.948 35.4 720.448 35.3C723.948 35.1 727.648 35 731.548 35C738.648 35 745.698 35.2 752.698 35.6C759.798 36 767.048 36.8 774.448 38C776.148 38.3 777.398 38.9 778.198 39.8C779.098 40.6 779.548 41.9 779.548 43.7V72.2C779.548 74.2 779.048 75.75 778.048 76.85C777.048 77.95 775.548 78.4 773.548 78.2C767.548 77.6 761.448 77.05 755.248 76.55C749.048 76.05 742.848 75.8 736.648 75.8C731.748 75.8 727.648 76.2 724.348 77C721.148 77.7 718.598 78.75 716.698 80.15C714.898 81.55 713.598 83.25 712.798 85.25C712.098 87.25 711.748 89.5 711.748 92V103.7C711.748 115.9 717.848 122 730.048 122H747.148C751.748 122 754.048 120 754.048 116V113ZM821.5 116C821.5 120 823.5 122 827.5 122H880.3C884.3 122 886.3 124 886.3 128V131C886.3 135 884.3 137 880.3 137H802C798 137 796 135 796 131V44C796 40.8 797.5 38.9 800.5 38.3C807 37.1 813.6 36.25 820.3 35.75C827 35.25 833.8 35 840.7 35C847.3 35 853.95 35.2 860.65 35.6C867.45 36 874.4 36.8 881.5 38C883 38.3 884.15 38.9 884.95 39.8C885.85 40.6 886.3 41.9 886.3 43.7V72.2C886.3 74.2 885.8 75.75 884.8 76.85C883.8 77.95 882.3 78.4 880.3 78.2C874.6 77.6 868.8 77.05 862.9 76.55C857 76.05 851.1 75.8 845.2 75.8C840.5 75.8 836.6 76 833.5 76.4C830.5 76.7 828.1 77.3 826.3 78.2C824.5 79.1 823.25 80.35 822.55 81.95C821.85 83.55 821.5 85.6 821.5 88.1V89.9C821.5 91.9 822.45 92.6 824.35 92C826.25 91.4 828.15 90.9 830.05 90.5C832.05 90.1 834.1 89.9 836.2 89.9C839.7 89.9 842.7 90.15 845.2 90.65C847.8 91.05 850.15 91.55 852.25 92.15C854.45 92.75 856.55 93.3 858.55 93.8C860.55 94.2 862.7 94.4 865 94.4H868C872.8 94.4 875.2 96.6 875.2 101V102.8C875.2 107.2 872.8 109.4 868 109.4H865C862.6 109.4 860.3 109.2 858.1 108.8C856 108.3 853.8 107.75 851.5 107.15C849.3 106.55 846.95 106.05 844.45 105.65C842.05 105.15 839.3 104.9 836.2 104.9C834.2 104.9 832.2 105.2 830.2 105.8C828.3 106.4 826.35 107.1 824.35 107.9C822.45 108.7 821.5 110.1 821.5 112.1V116Z" fill="#D94464"/>
<path d="M519.35 239.55C520.45 240.55 521.6 241.55 522.8 242.55C524 243.55 525.1 244.45 526.1 245.25C527.2 246.05 528.15 246.75 528.95 247.35C529.85 247.85 530.5 248.1 530.9 248.1C531.3 248.1 531.5 247.8 531.5 247.2C531.5 245.2 532 243.85 533 243.15C534 242.45 535.5 242.1 537.5 242.1H551C555 242.1 557 244.1 557 248.1V248.7C557 259.9 551.4 265.5 540.2 265.5C536.4 265.5 532.8 264.8 529.4 263.4C526 261.9 522.8 260.05 519.8 257.85C516.9 255.65 514.1 253.3 511.4 250.8C508.8 248.3 506.25 245.95 503.75 243.75C501.35 241.55 499 239.75 496.7 238.35C494.5 236.85 492.3 236.1 490.1 236.1H486.5C482.5 236.1 480.5 238.1 480.5 242.1V256.5C480.5 260.5 478.5 262.5 474.5 262.5H461C457 262.5 455 260.5 455 256.5V174C455 167 458.5 163.5 465.5 163.5H510.5C519.1 163.5 526.35 164 532.25 165C538.25 166 543.05 167.65 546.65 169.95C550.35 172.15 553 175.1 554.6 178.8C556.2 182.5 557 187 557 192.3V209.4C557 227.2 549 236.1 533 236.1H520.7C519.4 236.1 518 235.95 516.5 235.65C515 235.25 513.6 234.95 512.3 234.75V236.4C513.4 236.8 514.6 237.25 515.9 237.75C517.2 238.15 518.35 238.75 519.35 239.55ZM480.5 215.1C480.5 219.1 482.5 221.1 486.5 221.1H518.3C523.4 221.1 526.85 220.1 528.65 218.1C530.55 216.1 531.5 213.9 531.5 211.5C531.5 210.4 531.3 209.3 530.9 208.2C530.5 207.1 529.75 206.1 528.65 205.2C527.65 204.3 526.3 203.6 524.6 203.1C523 202.5 520.9 202.2 518.3 202.2H486.5C482.5 202.2 480.5 203.8 480.5 207V215.1ZM599.006 243C599.006 247 601.006 249 605.006 249H657.806C661.806 249 663.806 251 663.806 255V258C663.806 262 661.806 264 657.806 264H579.506C575.506 264 573.506 262 573.506 258V171C573.506 167.8 575.006 165.9 578.006 165.3C584.506 164.1 591.106 163.25 597.806 162.75C604.506 162.25 611.306 162 618.206 162C624.806 162 631.456 162.2 638.156 162.6C644.956 163 651.906 163.8 659.006 165C660.506 165.3 661.656 165.9 662.456 166.8C663.356 167.6 663.806 168.9 663.806 170.7V199.2C663.806 201.2 663.306 202.75 662.306 203.85C661.306 204.95 659.806 205.4 657.806 205.2C652.106 204.6 646.306 204.05 640.406 203.55C634.506 203.05 628.606 202.8 622.706 202.8C618.006 202.8 614.106 203 611.006 203.4C608.006 203.7 605.606 204.3 603.806 205.2C602.006 206.1 600.756 207.35 600.056 208.95C599.356 210.55 599.006 212.6 599.006 215.1V216.9C599.006 218.9 599.956 219.6 601.856 219C603.756 218.4 605.656 217.9 607.556 217.5C609.556 217.1 611.606 216.9 613.706 216.9C617.206 216.9 620.206 217.15 622.706 217.65C625.306 218.05 627.656 218.55 629.756 219.15C631.956 219.75 634.056 220.3 636.056 220.8C638.056 221.2 640.206 221.4 642.506 221.4H645.506C650.306 221.4 652.706 223.6 652.706 228V229.8C652.706 234.2 650.306 236.4 645.506 236.4H642.506C640.106 236.4 637.806 236.2 635.606 235.8C633.506 235.3 631.306 234.75 629.006 234.15C626.806 233.55 624.456 233.05 621.956 232.65C619.556 232.15 616.806 231.9 613.706 231.9C611.706 231.9 609.706 232.2 607.706 232.8C605.806 233.4 603.856 234.1 601.856 234.9C599.956 235.7 599.006 237.1 599.006 239.1V243ZM738.863 249C741.563 249 743.563 248.75 744.863 248.25C746.263 247.65 747.313 246.95 748.013 246.15C748.813 245.35 749.363 244.5 749.663 243.6C750.063 242.7 750.563 241.85 751.163 241.05C751.763 240.25 752.613 239.6 753.713 239.1C754.913 238.5 756.663 238.2 758.963 238.2C761.063 238.2 762.763 238.85 764.063 240.15C765.463 241.35 766.163 243.7 766.163 247.2C766.163 252.8 764.413 257 760.913 259.8C757.513 262.6 752.963 264 747.263 264H701.813C692.613 264 685.963 261.85 681.863 257.55C677.863 253.15 675.863 246 675.863 236.1V190.2C675.863 181.9 677.863 175.45 681.863 170.85C685.863 166.15 691.763 163.5 699.563 162.9C703.063 162.6 706.463 162.4 709.763 162.3C713.163 162.1 716.763 162 720.563 162C727.163 162 733.813 162.2 740.513 162.6C747.313 163 754.263 163.8 761.363 165C762.863 165.3 764.013 165.9 764.813 166.8C765.713 167.6 766.163 168.9 766.163 170.7V199.2C766.163 201.2 765.663 202.75 764.663 203.85C763.663 204.95 762.163 205.4 760.163 205.2C754.463 204.7 748.663 204.2 742.763 203.7C736.863 203.1 730.963 202.8 725.063 202.8C720.363 202.8 716.463 203.2 713.363 204C710.363 204.7 707.963 205.75 706.163 207.15C704.363 208.55 703.113 210.25 702.413 212.25C701.713 214.25 701.363 216.5 701.363 219V230.7C701.363 233.8 701.663 236.5 702.263 238.8C702.863 241.1 703.863 243 705.263 244.5C706.763 246 708.763 247.15 711.263 247.95C713.863 248.65 717.113 249 721.013 249H738.863ZM781.186 197.4C781.186 190.7 782.136 185.1 784.036 180.6C785.936 176.1 788.886 172.5 792.886 169.8C796.886 167 801.986 165 808.186 163.8C814.486 162.6 821.986 162 830.686 162C839.386 162 846.836 162.6 853.036 163.8C859.336 165 864.486 167 868.486 169.8C872.486 172.5 875.436 176.1 877.336 180.6C879.236 185.1 880.186 190.7 880.186 197.4V258C880.186 262 878.186 264 874.186 264H860.686C856.686 264 854.686 262 854.686 258V253.2C854.686 249.1 852.786 246.6 848.986 245.7C836.786 243 824.586 243 812.386 245.7C808.586 246.6 806.686 249.1 806.686 253.2V258C806.686 262 804.686 264 800.686 264H787.186C783.186 264 781.186 262 781.186 258V197.4ZM812.386 230.7C824.586 228 836.786 228 848.986 230.7C852.786 231.6 854.686 230.1 854.686 226.2V219C854.686 215.6 854.036 212.9 852.736 210.9C851.536 208.9 849.836 207.4 847.636 206.4C845.536 205.3 843.036 204.6 840.136 204.3C837.236 203.9 834.086 203.7 830.686 203.7C827.286 203.7 824.136 203.9 821.236 204.3C818.336 204.6 815.786 205.3 813.586 206.4C811.486 207.4 809.786 208.9 808.486 210.9C807.286 212.9 806.686 215.6 806.686 219V226.2C806.686 230.1 808.586 231.6 812.386 230.7ZM895.15 190.2C895.15 181.9 897.15 175.45 901.15 170.85C905.15 166.15 911.05 163.5 918.85 162.9C922.35 162.6 925.75 162.4 929.05 162.3C932.45 162.1 936.05 162 939.85 162C946.45 162 953.1 162.2 959.8 162.6C966.6 163 973.55 163.8 980.65 165C982.15 165.3 983.3 165.9 984.1 166.8C985 167.6 985.45 168.9 985.45 170.7V199.2C985.45 201.2 984.95 202.75 983.95 203.85C982.95 204.95 981.45 205.4 979.45 205.2C973.75 204.6 967.95 204.05 962.05 203.55C956.15 203.05 950.25 202.8 944.35 202.8C941.05 202.8 937.95 202.9 935.05 203.1C932.15 203.2 929.65 203.55 927.55 204.15C925.45 204.65 923.75 205.45 922.45 206.55C921.25 207.55 920.65 208.9 920.65 210.6C920.65 212.4 921.4 213.75 922.9 214.65C924.5 215.55 926.75 216.1 929.65 216.3L963.85 218.7C970.35 219.2 975.6 221.35 979.6 225.15C983.7 228.85 985.75 233.8 985.75 240C985.75 247.7 983.4 253.65 978.7 257.85C974.1 261.95 967.25 264 958.15 264H914.05C908.35 264 903.75 262.6 900.25 259.8C896.85 257 895.15 252.8 895.15 247.2C895.15 243.7 895.85 241.35 897.25 240.15C898.75 238.85 900.85 238.2 903.55 238.2C905.65 238.2 907.2 238.5 908.2 239.1C909.2 239.6 909.95 240.25 910.45 241.05C911.05 241.85 911.5 242.7 911.8 243.6C912.1 244.5 912.6 245.35 913.3 246.15C914 246.95 915.05 247.65 916.45 248.25C917.85 248.75 919.85 249 922.45 249H945.55C950.35 249 954.15 248.2 956.95 246.6C959.75 244.9 961.15 242.6 961.15 239.7C961.15 237.4 960.3 235.7 958.6 234.6C956.9 233.4 954.45 232.7 951.25 232.5L912.55 230.1C900.95 229.2 895.15 222.9 895.15 211.2V190.2ZM1026.57 203.4C1022.37 203.6 1018.17 203.85 1013.97 204.15C1009.87 204.35 1005.87 204.7 1001.97 205.2C999.966 205.5 998.516 205.1 997.616 204C996.716 202.8 996.266 201.2 996.266 199.2V170.7C996.266 168.9 996.716 167.6 997.616 166.8C998.516 165.9 999.866 165.3 1001.67 165C1009.47 163.8 1017.07 163 1024.47 162.6C1031.97 162.2 1039.47 162 1046.97 162C1054.17 162 1061.42 162.2 1068.72 162.6C1076.02 163 1083.07 163.8 1089.87 165C1091.37 165.3 1092.47 165.9 1093.17 166.8C1093.97 167.6 1094.37 168.9 1094.37 170.7V199.2C1094.37 201.2 1093.92 202.8 1093.02 204C1092.12 205.1 1090.67 205.5 1088.67 205.2C1084.77 204.7 1080.72 204.35 1076.52 204.15C1072.42 203.85 1068.27 203.6 1064.07 203.4C1060.07 203.1 1058.07 205 1058.07 209.1V258C1058.07 262 1056.07 264 1052.07 264H1038.57C1034.57 264 1032.57 262 1032.57 258V209.1C1032.57 205 1030.57 203.1 1026.57 203.4Z" fill="#D94464"/>
</svg>
